HIERARCHY
ROOT Hips
{
	OFFSET 0.000000 0.000000 0.000000
	CHANNELS 6 Xposition Yposition Zposition Zrotation Xrotation Yrotation
	JOINT Spine
	{
		OFFSET 0.000000 -1.053067 -0.000000
		CHANNELS 6 Xposition Yposition Zposition Zrotation Xrotation Yrotation
		JOINT Spine1
		{
			OFFSET 0.000000 -2.382877 -0.000001
			CHANNELS 6 Xposition Yposition Zposition Zrotation Xrotation Yrotation
			JOINT Neck
			{
				OFFSET 0.000000 -2.639722 -0.000001
				CHANNELS 6 Xposition Yposition Zposition Zrotation Xrotation Yrotation
				JOINT Head
				{
					OFFSET 0.000000 -1.990555 -0.256846
					CHANNELS 6 Xposition Yposition Zposition Zrotation Xrotation Yrotation
					End Site
					{
						OFFSET 0.000000 -2.568457 -0.000001
					}
				}
			}
			JOINT LeftShoulder
			{
				OFFSET 0.512620 -2.153831 0.056020
				CHANNELS 6 Xposition Yposition Zposition Zrotation Xrotation Yrotation
				JOINT LeftArm
				{
					OFFSET 1.485729 0.000000 0.000000
					CHANNELS 6 Xposition Yposition Zposition Zrotation Xrotation Yrotation
					JOINT LeftForeArm
					{
						OFFSET 3.852898 0.000000 0.000000
						CHANNELS 6 Xposition Yposition Zposition Zrotation Xrotation Yrotation
						JOINT LeftHand
						{
							OFFSET 3.445927 0.000000 0.000000
							CHANNELS 6 Xposition Yposition Zposition Zrotation Xrotation Yrotation
							End Site
							{
								OFFSET 1.926343 0.000000 0.000000
							}
						}
					}
				}
			}
			JOINT RightShoulder
			{
				OFFSET -0.513668 -2.153831 0.056020
				CHANNELS 6 Xposition Yposition Zposition Zrotation Xrotation Yrotation
				JOINT RightArm
				{
					OFFSET -1.485729 0.000000 0.000000
					CHANNELS 6 Xposition Yposition Zposition Zrotation Xrotation Yrotation
					JOINT RightForeArm
					{
						OFFSET -3.852898 0.000000 0.000000
						CHANNELS 6 Xposition Yposition Zposition Zrotation Xrotation Yrotation
						JOINT RightHand
						{
							OFFSET -3.445927 0.000000 0.000000
							CHANNELS 6 Xposition Yposition Zposition Zrotation Xrotation Yrotation
							End Site
							{
								OFFSET -1.926343 0.000000 0.000000
							}
						}
					}
				}
			}
		}
	}
	JOINT LeftUpLeg
	{
		OFFSET 1.284228 0.000000 0.000000
		CHANNELS 6 Xposition Yposition Zposition Zrotation Xrotation Yrotation
		JOINT LeftLeg
		{
			OFFSET 0.000000 6.684024 0.000002
			CHANNELS 6 Xposition Yposition Zposition Zrotation Xrotation Yrotation
			JOINT LeftFoot
			{
				OFFSET 0.000000 5.369457 0.000002
				CHANNELS 6 Xposition Yposition Zposition Zrotation Xrotation Yrotation
				JOINT LeftToeBase
				{
					OFFSET 0.000000 0.834749 -1.926342
					CHANNELS 6 Xposition Yposition Zposition Zrotation Xrotation Yrotation
					End Site
					{
						OFFSET 0.000000 0.000000 -0.513691
					}
				}
			}
		}
	}
	JOINT RightUpLeg
	{
		OFFSET -1.284228 0.000000 0.000000
		CHANNELS 6 Xposition Yposition Zposition Zrotation Xrotation Yrotation
		JOINT RightLeg
		{
			OFFSET 0.000000 6.684024 0.000002
			CHANNELS 6 Xposition Yposition Zposition Zrotation Xrotation Yrotation
			JOINT RightFoot
			{
				OFFSET 0.000000 5.369457 0.000002
				CHANNELS 6 Xposition Yposition Zposition Zrotation Xrotation Yrotation
				JOINT RightToeBase
				{
					OFFSET 0.000000 0.834749 -1.926342
					CHANNELS 6 Xposition Yposition Zposition Zrotation Xrotation Yrotation
					End Site
					{
						OFFSET 0.000000 0.000000 -0.513691
					}
				}
			}
		}
	}
}
MOTION
Frames: 8
Frame Time: 0.041667
-0.342639 -12.058099 -9.891962 3.545034 4.588119 -85.036688 0.000001 -1.053069 -0.000000 -1.220711 -9.668674 1.115397 -0.000000 -2.382876 -0.000001 -7.200414 0.949784 0.454020 0.000000 -2.639722 -0.000001 18.298610 19.258348 15.593877 0.000001 -1.990553 -0.256846 -25.576121 -2.951766 24.133616 0.512622 -2.153831 0.056020 -12.709196 -5.724577 8.679325 1.485729 0.000000 0.000000 4.533197 17.369509 0.173257 3.852899 0.000002 0.000000 -12.605875 -17.841774 -4.722566 3.445926 -0.000003 -0.000000 43.500734 -12.405110 15.323036 -0.513667 -2.153830 0.056020 5.017634 12.432575 5.097409 -1.485727 -0.000003 -0.000001 -45.064386 71.131086 -30.558762 -3.852900 -0.000002 0.000002 17.402897 -16.409335 -9.911774 -3.445929 -0.000001 0.000001 -11.487221 -14.219948 -7.445057 1.284229 -0.000000 -0.000000 6.985560 -6.191974 0.282940 -0.000000 6.684025 0.000002 4.005877 11.848453 -1.771389 0.000002 5.369460 0.000002 -8.544451 -8.955425 -25.647869 0.000001 0.834748 -1.926343 0.000001 0.000001 0.000000 -1.284228 -0.000001 -0.000000 7.586829 -10.897595 0.095568 0.000001 6.684023 0.000002 -5.792300 24.871265 7.381192 0.000002 5.369458 0.000003 1.046893 -21.549841 9.093863 -0.000001 0.834749 -1.926343 0.000001 0.000000 -0.000002 
-0.338303 -12.059246 -9.900331 3.537934 4.562978 -85.018356 0.000002 -1.053066 -0.000000 -1.222062 -9.703041 1.125984 -0.000001 -2.382875 -0.000001 -7.219591 0.960985 0.458478 0.000002 -2.639726 -0.000001 18.338430 19.239723 15.582814 -0.000000 -1.990558 -0.256846 -25.651470 -2.972725 24.134328 0.512621 -2.153831 0.056021 -12.740234 -5.801193 8.693881 1.485728 0.000004 -0.000000 4.507080 17.100179 0.067980 3.852898 0.000001 0.000001 -12.492360 -17.672312 -4.661788 3.445926 -0.000003 -0.000001 43.364352 -12.307934 15.154170 -0.513666 -2.153828 0.056021 5.031028 12.429390 5.075895 -1.485727 -0.000001 -0.000000 -45.186568 70.984612 -30.393949 -3.852901 -0.000001 0.000003 17.318607 -16.310027 -9.987191 -3.445927 -0.000001 -0.000001 -11.402278 -14.113816 -7.519286 1.284229 0.000000 -0.000000 6.925571 -6.155719 0.329570 -0.000002 6.684023 0.000002 4.026286 11.862877 -1.795517 -0.000001 5.369457 0.000002 -8.533708 -8.978995 -25.717590 -0.000002 0.834749 -1.926342 -0.000001 0.000001 -0.000000 -1.284228 -0.000001 0.000000 7.566313 -10.801621 0.248251 0.000001 6.684024 0.000003 -5.821319 24.726313 7.422662 0.000001 5.369457 0.000002 1.015711 -21.523012 8.895626 0.000002 0.834748 -1.926342 0.000001 0.000001 -0.000003 
-0.333975 -12.060613 -9.907454 3.515069 4.554705 -85.007209 -0.000001 -1.053068 -0.000000 -1.205124 -9.689021 1.142666 -0.000001 -2.382877 -0.000001 -7.245346 0.928040 0.461817 0.000001 -2.639726 -0.000001 18.340127 19.256817 15.594133 0.000000 -1.990558 -0.256846 -25.659696 -3.043201 24.133896 0.512620 -2.153834 0.056021 -12.762786 -5.763940 8.636498 1.485731 0.000001 0.000000 4.456768 16.921579 0.073681 3.852896 0.000001 0.000000 -12.439566 -17.568363 -4.681777 3.445926 -0.000005 -0.000000 43.342434 -12.222635 15.108869 -0.513668 -2.153833 0.056020 5.026729 12.448816 5.076190 -1.485728 -0.000004 -0.000001 -45.216177 70.884530 -30.305508 -3.852898 -0.000000 0.000001 17.333721 -16.220810 -10.012216 -3.445927 0.000000 -0.000000 -11.517432 -14.008421 -7.547483 1.284227 -0.000000 -0.000000 6.907377 -6.088304 0.375629 -0.000001 6.684024 0.000002 3.991619 11.811289 -1.807803 -0.000001 5.369458 0.000002 -8.508285 -8.953848 -25.750573 0.000000 0.834749 -1.926343 -0.000001 0.000003 -0.000003 -1.284228 -0.000000 -0.000000 7.572532 -10.699719 0.504863 -0.000001 6.684024 0.000002 -5.815929 24.615081 7.368612 -0.000002 5.369461 0.000002 0.974215 -21.514742 8.743916 -0.000001 0.834749 -1.926343 0.000001 0.000001 -0.000002 
-0.330087 -12.061946 -9.915357 3.513921 4.515789 -85.012612 0.000000 -1.053067 -0.000000 -1.199434 -9.768332 1.127737 0.000002 -2.382876 -0.000000 -7.305867 0.962810 0.459211 0.000000 -2.639724 -0.000001 18.332834 19.387726 15.623453 0.000002 -1.990555 -0.256846 -25.675234 -3.205050 24.146933 0.512620 -2.153833 0.056020 -12.751752 -5.705445 8.791965 1.485730 0.000000 -0.000001 4.462336 16.717614 -0.081715 3.852896 0.000000 0.000000 -12.415272 -17.449359 -4.690003 3.445928 -0.000000 -0.000000 43.262985 -12.147869 15.019460 -0.513666 -2.153833 0.056020 5.016476 12.457659 5.063457 -1.485727 0.000000 -0.000000 -45.504844 70.678429 -29.949403 -3.852899 -0.000000 0.000001 17.298602 -16.216964 -10.059529 -3.445930 -0.000005 0.000002 -11.376831 -14.005641 -7.588330 1.284229 -0.000000 0.000000 6.846773 -6.045644 0.369024 -0.000000 6.684026 0.000002 3.964002 11.751545 -1.746444 -0.000001 5.369458 0.000002 -8.536893 -8.915559 -25.806985 -0.000000 0.834749 -1.926343 0.000001 -0.000001 -0.000002 -1.284228 0.000000 0.000000 7.561090 -10.609090 0.677391 0.000002 6.684025 0.000002 -5.895588 24.476444 7.406357 0.000004 5.369459 0.000002 0.974054 -21.464307 8.587605 -0.000001 0.834749 -1.926343 0.000001 -0.000002 0.000000 
-0.326530 -12.063675 -9.922583 3.509121 4.495562 -85.026027 0.000001 -1.053067 -0.000000 -1.201444 -9.767655 1.131709 -0.000000 -2.382878 -0.000001 -7.323497 0.927190 0.458409 -0.000000 -2.639720 -0.000001 18.340204 19.393612 15.645510 0.000002 -1.990555 -0.256847 -25.703919 -3.244618 24.166232 0.512621 -2.153828 0.056020 -12.786721 -5.719275 8.783651 1.485729 -0.000003 0.000000 4.459636 16.604815 -0.101237 3.852897 0.000003 -0.000000 -12.393870 -17.347594 -4.687314 3.445926 0.000000 -0.000000 43.243676 -12.069904 14.957332 -0.513669 -2.153828 0.056020 5.000888 12.450050 5.128308 -1.485730 -0.000000 -0.000000 -45.368924 70.729874 -30.031478 -3.852902 -0.000001 -0.000000 17.359769 -16.266970 -9.998268 -3.445928 0.000001 0.000000 -11.498345 -14.053961 -7.569431 1.284228 0.000001 0.000000 6.801496 -6.033839 0.401411 -0.000000 6.684024 0.000002 3.982770 11.800463 -1.809756 0.000000 5.369459 0.000002 -8.518922 -8.931770 -25.831864 0.000000 0.834749 -1.926343 -0.000002 0.000001 -0.000005 -1.284227 0.000000 0.000000 7.571526 -10.522948 0.915354 0.000001 6.684025 0.000003 -5.946916 24.357768 7.348438 0.000001 5.369459 0.000002 0.973485 -21.413758 8.468787 0.000002 0.834750 -1.926343 0.000001 0.000001 0.000000 
-0.323336 -12.065005 -9.929578 3.499861 4.471706 -85.056216 -0.000002 -1.053066 -0.000000 -1.232216 -9.750189 1.178668 -0.000000 -2.382876 -0.000001 -7.304902 0.848575 0.469687 0.000001 -2.639721 -0.000001 18.341209 19.393393 15.632146 -0.000000 -1.990559 -0.256846 -25.670069 -3.228577 24.153349 0.512622 -2.153830 0.056020 -12.796278 -5.667021 8.752759 1.485729 -0.000002 0.000001 4.392780 16.572696 -0.124384 3.852897 0.000003 0.000000 -12.320621 -17.304995 -4.671551 3.445928 -0.000006 0.000000 43.163329 -12.055421 14.902003 -0.513667 -2.153829 0.056020 5.038714 12.519283 5.106624 -1.485728 -0.000002 -0.000001 -45.679318 70.423676 -29.727927 -3.852901 -0.000001 0.000001 17.296793 -16.222041 -10.115245 -3.445929 -0.000000 0.000001 -11.507216 -14.000730 -7.521663 1.284228 0.000002 -0.000000 6.764384 -5.999614 0.409115 0.000000 6.684025 0.000002 3.948534 11.794868 -1.843901 -0.000001 5.369456 0.000002 -8.471319 -8.941058 -25.772699 0.000001 0.834750 -1.926342 -0.000001 0.000003 -0.000000 -1.284229 0.000002 0.000000 7.575423 -10.444674 1.189113 0.000000 6.684022 0.000002 -5.976722 24.270126 7.301465 -0.000000 5.369459 0.000002 0.873064 -21.381895 8.319742 0.000000 0.834750 -1.926344 -0.000001 -0.000003 -0.000002 
-0.320731 -12.067400 -9.937530 3.492223 4.438832 -85.081617 0.000000 -1.053068 -0.000000 -1.247566 -9.751622 1.212926 0.000000 -2.382876 -0.000001 -7.313420 0.824612 0.480218 -0.000001 -2.639722 -0.000001 18.314606 19.379625 15.657170 -0.000001 -1.990556 -0.256847 -25.619915 -3.231667 24.162793 0.512618 -2.153826 0.056021 -12.807860 -5.641908 8.723541 1.485728 -0.000003 0.000000 4.335467 16.440615 -0.147267 3.852899 0.000000 -0.000000 -12.256833 -17.177545 -4.630388 3.445927 -0.000002 -0.000000 43.084505 -11.963046 14.817301 -0.513669 -2.153827 0.056021 5.042724 12.532573 5.110264 -1.485727 0.000001 -0.000000 -45.812988 70.295050 -29.576358 -3.852902 -0.000001 0.000001 17.326330 -16.182520 -10.084237 -3.445930 -0.000001 0.000001 -11.547517 -13.952973 -7.595293 1.284229 0.000000 0.000000 6.724694 -5.957621 0.345457 -0.000001 6.684024 0.000002 3.872412 11.754186 -1.844805 0.000001 5.369460 0.000002 -8.411801 -8.903662 -25.669681 0.000001 0.834749 -1.926342 0.000001 -0.000000 -0.000002 -1.284229 -0.000001 0.000000 7.565422 -10.346719 1.356939 0.000001 6.684023 0.000002 -6.043207 24.128162 7.292223 0.000002 5.369460 0.000003 0.834156 -21.316110 8.219936 0.000002 0.834749 -1.926343 0.000000 0.000005 -0.000000 
-0.317017 -12.068196 -9.945491 3.488249 4.418461 -85.129736 0.000001 -1.053068 -0.000000 -1.236313 -9.772422 1.262572 0.000000 -2.382877 -0.000001 -7.342512 0.805899 0.495438 0.000002 -2.639723 -0.000001 18.385063 19.391481 15.642081 -0.000000 -1.990553 -0.256846 -25.701362 -3.223885 24.180465 0.512622 -2.153832 0.056021 -12.812722 -5.630650 8.722835 1.485729 -0.000003 0.000000 4.303948 16.279607 -0.208065 3.852899 -0.000004 0.000001 -12.189939 -17.069584 -4.542084 3.445925 0.000000 -0.000000 43.002253 -11.888912 14.725169 -0.513666 -2.153832 0.056020 5.046326 12.525543 5.120939 -1.485729 -0.000002 -0.000001 -46.221669 69.981340 -29.104112 -3.852901 -0.000000 0.000000 17.208190 -16.151965 -10.249342 -3.445927 -0.000001 0.000001 -11.528173 -13.911171 -7.576246 1.284229 0.000001 -0.000000 6.682195 -5.939638 0.369952 -0.000001 6.684024 0.000002 3.850877 11.766393 -1.827498 0.000000 5.369456 0.000002 -8.406622 -8.911680 -25.665505 0.000001 0.834750 -1.926342 0.000002 -0.000003 0.000003 -1.284226 0.000000 -0.000000 7.573046 -10.277520 1.617935 0.000001 6.684023 0.000002 -6.073691 24.073893 7.301591 0.000001 5.369458 0.000002 0.747627 -21.304755 7.995782 -0.000001 0.834749 -1.926343 0.000001 -0.000004 -0.000001 
